<svg xmlns="http://www.w3.org/2000/svg" viewBox="0 0 640 320" xml:space="preserve"><path d="M64.1-248.5c0.3,0,0.7-0.1,1.3-0.4s1.4-0.5,2.4-0.6c1-0.1,1.9-0.2,2.6-0.2c1.9,0,3.6,0.9,5.2,2.8 c1.6,1.9,2.7,3.9,3.4,6.2c1.4,3.9,3.9,14.8,7.3,32.9c3.4,18,6.7,35.2,9.9,51.5s4.7,24.6,4.7,24.7v0.6H90.8 c-6.7,0-10.3,0.1-10.7,0.4c-0.6,0.4-0.9,1.1-0.9,2.1l1.5,6c0.3,0.7,0.9,1.1,1.7,1.1s4.2,0.1,10.1,0.2c6.9,0,10.3,0.1,10.3,0.2 c0,0.3,0.6,3.9,1.9,10.7c1.3,6.9,2.1,11,2.6,12.5c5.3,23.6,15.7,35.4,31.4,35.4c5.3-0.3,9.7-1.9,13.1-4.7s5.2-6.7,5.2-11.4 c0-5.2-1.5-8.9-4.5-11.2c-3-2.3-6-3.5-9-3.7c-6.3,0-9.4,3-9.4,9c0,2.7,0.8,5.1,2.4,7.1c1.6,2,3.3,3.5,5.2,4.5l1.9,1.1 c-2.3,0.9-4.4,1.3-6.4,1.3c-1.7,0-3.4-0.7-4.9-2.1s-2.6-3.4-3.2-6c-1-4.2-2.1-9.7-3.4-16.8c-1.3-7-2.4-13-3.4-17.8 c-1-4.9-1.5-7.4-1.5-7.7s3.9-0.4,11.8-0.4c6.4,0,10.2-0.1,11.2-0.2c1-0.1,1.8-0.6,2.4-1.3c0.1-0.6,0-1.8-0.4-3.7 c-0.4-1.9-0.8-3-1.1-3.4c-0.3-0.7-0.9-1.1-1.9-1.1c-1,0-4.9-0.1-11.6-0.2h-12l-4.9-26.2c-6.9-35.5-11.7-57.7-14.4-66.6 c-3.9-12.2-8.9-21.2-15-27.1c-5.3-4.6-10.5-6.9-15.7-6.9c-4.6,0-8.7,1.4-12.5,4.1s-5.6,6.6-5.6,11.6c0,5.3,1.5,9.2,4.5,11.6 c3,2.4,6,3.7,9,3.7c6.3,0,9.4-3,9.4-9c0-2.7-0.8-5.1-2.4-7.1s-3.3-3.5-5.2-4.5L64.1-248.5z" transform="scale(1 -1)"/><path d="M-484.8-74c0.1,0.4,0.3,1,0.4,1.7c0.1,0.7,0.5,2.3,1.1,4.7c0.6,2.4,1.3,4.7,2.1,6.7 c0.9,2,1.9,4.4,3.2,7.1c1.3,2.7,2.7,4.9,4.3,6.4c1.6,1.6,3.4,3.1,5.6,4.7c2.1,1.6,4.5,2.2,7.1,1.9c4.2,0,7.8-0.9,11-2.6 c3.1-1.7,5.4-3.3,6.7-4.7c1.3-1.4,2.1-2.9,2.4-4.3c0.3-0.9,0.5-1.3,0.6-1.3c0.1,0,0.7,0.5,1.7,1.5 c6.9,7.4,14.8,11.2,23.8,11.2h0.6c6.9,0,12-2.9,15.5-8.8c1.1-2.7,1.7-5.4,1.7-7.9c0-4.3-0.9-7.7-2.8-10.3s-3.7-4.2-5.6-4.9 c-1.9-0.7-3.7-1-5.4-0.9c-2.9,0-5.2,0.8-6.9,2.4c-1.7,1.6-2.6,3.7-2.6,6.2c0,6.9,4,11.5,12,13.7c-3.1,1.9-5.7,2.8-7.7,2.8 c-8,0-15.4-5.3-22.1-15.9c-1.4-2.3-2.5-4.7-3.2-7.1c-0.7-2.4-3.1-12-7.3-28.6c-4.9-20-7.7-30.7-8.4-32 c-1.9-3.9-4.9-5.8-9.2-5.8c-1.9,0-3.4,0.4-4.5,1.3c-1.1,0.9-1.9,1.7-2.4,2.6c-0.4,0.9-0.6,1.6-0.4,2.1 c0,1.9,2.9,14.2,8.6,36.9c5.7,22.8,8.6,35.4,8.6,38c0,5.6-1.9,8.4-5.6,8.4c-3,0-5.6-2-7.7-6c-2.1-4-3.9-8.4-5.2-13.1 s-2.1-7.3-2.4-7.7c-0.3-0.3-1.4-0.4-3.4-0.4h-3C-484.4-75.1-484.8-74.4-484.8-74z" transform="matrix(.707 0 0 -.707 490 150)"/><path d="M-835.1-99.6c0,8.2,1.4,15.6,4.1,22.3s6.2,12.3,10.5,16.8c4.3,4.4,9.1,8.2,14.4,11.2 c5.3,3,10.3,5.2,15,6.7s9.2,2.1,13.5,1.9h0.6c6.4,0,12-1.6,16.8-4.7c4.7-3.1,7.1-7.8,7.1-14c0-12.9-7.9-21.3-23.8-25.3 c-7-1.9-16.6-2.9-28.8-3c-5.3,0-8-0.1-8.2-0.4c0-0.3-0.4-2.8-1.3-7.5s-1.4-8.9-1.5-12.5c0-6.7,1.5-12,4.5-15.9s7.5-5.9,13.5-6 c6-0.1,12.7,1.2,20,4.1c7.3,2.9,13.9,7.6,19.8,14.2c1.3,1.4,2.1,2.1,2.6,2.1c0.6,0,1.5-0.6,2.8-1.9c1.3-1.3,2-2.3,2.1-3 c0.1-0.7-0.5-1.9-1.9-3.4c-1.4-1.6-3.6-3.5-6.4-5.8s-6.2-4.5-9.9-6.7s-8.2-3.9-13.5-5.4c-5.3-1.4-10.7-2.1-16.3-2.1 c-11.3,0-20,3.8-26.2,11.4C-831.8-119-835-110-835.1-99.6z M-763.4-59.8c-0.9,7.4-5.7,11.2-14.6,11.2c-4.7,0-9.1-1-13.1-3 c-4-2-7.2-4.4-9.7-7.3c-2.4-2.9-4.5-5.8-6.2-8.8c-1.7-3-2.9-5.6-3.4-7.7c-0.6-2.1-0.9-3.5-1.1-4.1c0-0.1,1.4-0.2,4.3-0.2 c16.2,0,27.5,1.7,33.9,5.2C-766.8-71.2-763.5-66.3-763.4-59.8z" transform="matrix(.707 0 0 -.707 808.857 150)"/><path d="M-1204.9-74c0.1,0.9,0.4,2,0.6,3.4s1.1,4.2,2.6,8.2c1.4,4,2.9,7.4,4.3,10.1 c1.4,2.7,3.8,5.4,7.1,7.9c3.3,2.6,6.6,3.8,9.9,3.7c5.2,0,9.4-1.3,12.9-3.9c3.4-2.6,5.6-5,6.4-7.3c0.9-2.3,1.3-3.8,1.3-4.5 c0-0.3,0.1-0.4,0.2-0.4l2.4,2.4c8.7,9.2,18.7,13.7,29.9,13.7c7.7,0,14-1.9,18.7-5.8c4.7-3.9,7.2-9.5,7.3-17 c0.1-7.4-2.6-18.7-8.2-33.7s-8.3-24.1-8.2-27.3c0-3.7,1.2-5.6,3.7-5.6c0.9,0,1.5,0.1,1.9,0.2c4.2,0.7,7.9,3.4,11.2,8.2 c3.3,4.7,5.8,10.5,7.5,17.2c0.3,1.1,1.7,1.7,4.3,1.7c2.9,0,4.3-0.6,4.3-1.7c0-0.1-0.3-1.2-0.9-3.2c-1.1-4.2-2.7-8.2-4.7-12.2 s-5.3-8-9.9-12c-4.6-4-9.5-5.9-14.8-5.8c-6.7,0-11.6,1.9-14.6,5.8s-4.5,7.9-4.5,12c0,2.7,2.6,11.3,7.7,25.8s7.8,25.3,7.9,32.6 c0,8.4-3.1,12.7-9.4,12.7h-1.1c-12.3,0-22.7-7.2-31.1-21.7l-1.5-2.6l-7.1-28.8c-4.7-18.8-7.4-28.9-8.2-30.3 c-1.9-3.9-4.9-5.8-9.2-5.8c-1.9,0-3.4,0.4-4.5,1.3c-1.1,0.9-1.9,1.7-2.4,2.6c-0.4,0.9-0.6,1.6-0.4,2.1c0,1.9,2.7,13.5,8.2,35 s8.3,33.1,8.6,35c0.1,0.7,0.2,2.4,0.2,4.9c0,5.6-1.7,8.4-5.2,8.4c-5.4,0-10-7.2-13.5-21.5c-0.9-2.9-1.3-4.4-1.3-4.5 c-0.3-0.9-1.6-1.3-4.1-1.3h-3C-1204.5-75.1-1204.9-74.4-1204.9-74z" transform="matrix(.707 0 0 -.707 1138.319 150)"/><path d="M-1601.9,11c0.1,0,5.3,0.4,15.5,1.1c10.2,0.7,15.4,1.1,15.7,1.3c1.7,0,2.6-0.6,2.6-1.7 c0-1-5.2-22.6-15.7-64.9c-10.5-42.2-15.8-63.8-16.1-64.6s-0.4-1.9-0.2-3.2c0-6,2-9,6-9c1.3,0.1,2.7,0.8,4.3,1.9 c3,2.9,5.9,9.7,8.8,20.6c0.9,2.9,1.6,4.4,2.1,4.5c0.3,0.1,1,0.2,2.1,0.2h0.9h0.9c2.1,0,3.2-0.6,3.2-1.7c0-0.7-0.2-1.9-0.6-3.4 c-1.9-7.2-4-13-6.4-17.4c-2.4-4.4-4.4-7.3-6-8.6c-1.6-1.3-3.6-2.4-6-3.4c-1.1-0.3-2.9-0.4-5.2-0.4c-4.9,0-8.9,1.1-12.2,3.2 s-5.4,4.4-6.4,6.7l-1.3,3.2c-0.1,0.1-0.4,0.1-0.9-0.2c-0.3-0.3-0.6-0.6-0.9-0.9c-8.4-8-17-12-25.8-12 c-7.9,0-14.8,2.9-20.8,8.6c-6,5.7-9,14.8-9,27.3c0,6.9,1.4,13.9,4.3,21c2.9,7.2,6.3,13.3,10.3,18.5c6.7,8.2,13.5,13.8,20.2,17 c6.7,3.1,12.8,4.7,18.3,4.7c8,0,14-3,18-9c0.7-0.9,1.1-1.1,1.1-0.9c0.1,0.6,2.1,8.4,5.8,23.4c3.7,15,5.7,23,6,23.8 c0,1.9-0.5,3-1.5,3.4c-1,0.4-3.8,0.8-8.4,1.1h-4.5c-0.9,0.9-1.3,1.4-1.3,1.7s0.1,1.6,0.4,4.1C-1604,9.7-1603.1,11-1601.9,11z M-1604.9-65.6c-3.3,11.3-8.7,17-16.1,17c-5,0-9.8-2.2-14.4-6.7s-8.2-10.2-10.7-17.4c-4.2-11.3-7.1-23.1-8.8-35.2 c0-0.4,0-1.2,0-2.4s-0.1-2-0.2-2.6c0-6.4,1.3-10.9,3.9-13.3c2.6-2.4,5.7-3.7,9.2-3.9c7.7,0,15.7,5.2,23.8,15.5l1.7,2.4 L-1604.9-65.6z" transform="matrix(.707 0 0 -.707 1562.519 150)"/><path d="M-2080.5-99.6c0,8.2,1.4,15.6,4.1,22.3s6.2,12.3,10.5,16.8s9.1,8.2,14.4,11.2 c5.3,3,10.3,5.2,15,6.7c4.7,1.4,9.2,2.1,13.5,1.9h0.6c6.4,0,12-1.6,16.8-4.7c4.7-3.1,7.1-7.8,7.1-14 c0-12.9-7.9-21.3-23.8-25.3c-7-1.9-16.6-2.9-28.8-3c-5.3,0-8-0.1-8.2-0.4c0-0.3-0.4-2.8-1.3-7.5s-1.4-8.9-1.5-12.5 c0-6.7,1.5-12,4.5-15.9s7.5-5.9,13.5-6c6-0.1,12.7,1.2,20,4.1c7.3,2.9,13.9,7.6,19.8,14.2c1.3,1.4,2.1,2.1,2.6,2.1 c0.6,0,1.5-0.6,2.8-1.9c1.3-1.3,2-2.3,2.1-3c0.1-0.7-0.5-1.9-1.9-3.4c-1.4-1.6-3.6-3.5-6.4-5.8c-2.9-2.3-6.2-4.5-9.9-6.7 s-8.2-3.9-13.5-5.4c-5.3-1.4-10.7-2.1-16.3-2.1c-11.3,0-20,3.8-26.2,11.4S-2080.3-110-2080.5-99.6z M-2008.7-59.8 c-0.9,7.4-5.7,11.2-14.6,11.2c-4.7,0-9.1-1-13.1-3c-4-2-7.2-4.4-9.7-7.3c-2.4-2.9-4.5-5.8-6.2-8.8c-1.7-3-2.9-5.6-3.4-7.7 c-0.6-2.1-0.9-3.5-1.1-4.1c0-0.1,1.4-0.2,4.3-0.2c16.2,0,27.5,1.7,33.9,5.2C-2012.2-71.2-2008.9-66.3-2008.7-59.8z" transform="matrix(.707 0 0 -.707 1930.159 150)"/><path d="M-2450.3-74c0.1,0.4,0.3,1,0.4,1.7c0.1,0.7,0.5,2.3,1.1,4.7c0.6,2.4,1.3,4.7,2.1,6.7 c0.9,2,1.9,4.4,3.2,7.1s2.7,4.9,4.3,6.4s3.4,3.1,5.6,4.7c2.1,1.6,4.5,2.2,7.1,1.9c4.2,0,7.8-0.9,11-2.6 c3.2-1.7,5.4-3.3,6.7-4.7c1.3-1.4,2.1-2.9,2.4-4.3c0.3-0.9,0.5-1.3,0.6-1.3c0.1,0,0.7,0.5,1.7,1.5 c6.9,7.4,14.8,11.2,23.8,11.2h0.6c6.9,0,12-2.9,15.5-8.8c1.1-2.7,1.7-5.4,1.7-7.9c0-4.3-0.9-7.7-2.8-10.3s-3.7-4.2-5.6-4.9 c-1.9-0.7-3.7-1-5.4-0.9c-2.9,0-5.2,0.8-6.9,2.4c-1.7,1.6-2.6,3.7-2.6,6.2c0,6.9,4,11.5,12,13.7c-3.1,1.9-5.7,2.8-7.7,2.8 c-8,0-15.4-5.3-22.1-15.9c-1.4-2.3-2.5-4.7-3.2-7.1s-3.1-12-7.3-28.6c-4.9-20-7.7-30.7-8.4-32c-1.9-3.9-4.9-5.8-9.2-5.8 c-1.9,0-3.4,0.4-4.5,1.3c-1.1,0.9-1.9,1.7-2.4,2.6c-0.4,0.9-0.6,1.6-0.4,2.1c0,1.9,2.9,14.2,8.6,36.9 c5.7,22.8,8.6,35.4,8.6,38c0,5.6-1.9,8.4-5.6,8.4c-3,0-5.6-2-7.7-6s-3.9-8.4-5.2-13.1c-1.3-4.7-2.1-7.3-2.4-7.7 c-0.3-0.3-1.4-0.4-3.4-0.4h-3C-2449.8-75.1-2450.3-74.4-2450.3-74z" transform="matrix(.707 0 0 -.707 2259.621 150)"/></svg>
